# xmcd
#
# Track frame offsets:
#  150
#  18972
#  37925
#  56285
#  77904
#  91854
#  111715
#  126965
#  141632
#  156487
#
# Disc length: 2332 seconds
#
# Revision: 0
# Processed by: cddbd v1.5.1PL2 Copyright (c) Steve Scherf et al.
# Submitted via: Collectorz.com_Music_Collector 6.9
#
DISCID=87091a0a
DTITLE=Ray Brooks - Iron Horseman Blues
DYEAR=1995
DGENRE=Blues
TTITLE0=Iron Horseman Blues
TTITLE1=Local Union Man
TTITLE2=Sweet Bread
TTITLE3=It's Ah Shame
TTITLE4=Time To Say Goodbye
TTITLE5=Tomorrow Night
TTITLE6=Kimmy
TTITLE7=Can't Stand The Pain
TTITLE8=I'll Always Love You
TTITLE9=Blues Feeling
EXTD=
EXTT0=
EXTT1=
EXTT2=
EXTT3=
EXTT4=
EXTT5=
EXTT6=
EXTT7=
EXTT8=
EXTT9=
PLAYORDER=
